<mxfile host="app.diagrams.net" modified="2023-11-18T10:20:14.255Z" agent="Mozilla/5.0 (Windows NT 10.0; Win64; x64) AppleWebKit/537.36 (KHTML, like Gecko) Chrome/119.0.0.0 Safari/537.36 Edg/119.0.0.0" version="22.1.3" etag="vmVnNhCDTrNqwcZOvuMc" type="google">
  <diagram id="G4Oo2_4QXZtaoVm-S8sJ" name="Page-1">
    <mxGraphModel grid="1" page="0" gridSize="10" guides="1" tooltips="1" connect="1" arrows="1" fold="1" pageScale="1" pageWidth="1200" pageHeight="1920" background="none" math="0" shadow="0">
      <root>
        <mxCell id="0" />
        <mxCell id="1" parent="0" />
        <mxCell id="node2" value="&lt;p style=&quot;margin:0px;margin-top:4px;text-align:center;&quot;&gt;&lt;b&gt;ApplicationKt&lt;/b&gt;&lt;/p&gt;&lt;hr size=&quot;1&quot;/&gt;&lt;p style=&quot;margin:0 0 0 4px;line-height:1.6;&quot;&gt;+ module(Application): Unit&lt;br/&gt;- withServices(Module): Unit&lt;br/&gt;- withDatabaseWrappers(Module): Unit&lt;br/&gt;- withSqliteProd(Module): Unit&lt;br/&gt;- withH2Prod(Module): Unit&lt;br/&gt;- withExternalApis(Module): Unit&lt;br/&gt;+ main(): Unit&lt;/p&gt;" style="verticalAlign=top;align=left;overflow=fill;fontSize=14;fontFamily=Helvetica;html=1;rounded=0;shadow=0;comic=0;labelBackgroundColor=none;strokeWidth=1;" vertex="1" parent="1">
          <mxGeometry x="-310" y="-490" width="278" height="207" as="geometry" />
        </mxCell>
        <mxCell id="w4eLnVpQkUb1o6Rw9Cqp-1" value="controllers" style="shape=folder;fontStyle=1;tabWidth=110;tabHeight=30;tabPosition=left;html=1;boundedLbl=1;labelInHeader=1;container=1;collapsible=0;whiteSpace=wrap;fontSize=20;strokeWidth=4;" vertex="1" parent="1">
          <mxGeometry x="-310" y="-880" width="910" height="360" as="geometry" />
        </mxCell>
        <mxCell id="w4eLnVpQkUb1o6Rw9Cqp-2" value="" style="html=1;strokeColor=none;resizeWidth=1;resizeHeight=1;fillColor=none;part=1;connectable=0;allowArrows=0;deletable=0;whiteSpace=wrap;" vertex="1" parent="w4eLnVpQkUb1o6Rw9Cqp-1">
          <mxGeometry width="910" height="252" relative="1" as="geometry">
            <mxPoint y="30" as="offset" />
          </mxGeometry>
        </mxCell>
        <mxCell id="node0" value="&lt;p style=&quot;margin:0px;margin-top:4px;text-align:center;&quot;&gt;&lt;b&gt;CarparkControllerKt&lt;/b&gt;&lt;/p&gt;&lt;hr size=&quot;1&quot;/&gt;&lt;p style=&quot;margin:0 0 0 4px;line-height:1.6;&quot;&gt;- suspend  toCarparkAvailabilities(List&amp;lt;Carpark&amp;gt;, Coordinate, Boolean, LocationService, AvailabilityRepository): List&amp;lt;CarparkAvailability&amp;gt;&lt;br/&gt;+ CarparkController(Application): Unit&lt;br/&gt;- suspend  vacancies(AvailabilityRepository, String, Duration, Long, Instant): Prediction&lt;br/&gt;- suspend  vacancies(AvailabilityRepository, String, Instant): Prediction&lt;br/&gt;- remTime(Long): Long&lt;br/&gt;- suspend  getCarparkAvailability(Carpark, Coordinate, Int, Duration, Boolean, AvailabilityRepository): CarparkAvailability&lt;br/&gt;- suspend  getCarparkAvailabilities(List&amp;lt;Carpark&amp;gt;, Coordinate, Boolean, LocationService, AvailabilityRepository): List&amp;lt;CarparkAvailability&amp;gt;&lt;/p&gt;" style="verticalAlign=top;align=left;overflow=fill;fontSize=14;fontFamily=Helvetica;html=1;rounded=0;shadow=1;comic=0;labelBackgroundColor=none;strokeWidth=1;" vertex="1" parent="w4eLnVpQkUb1o6Rw9Cqp-1">
          <mxGeometry x="15" y="50" width="880" height="210" as="geometry" />
        </mxCell>
        <mxCell id="node1" value="&lt;p style=&quot;margin:0px;margin-top:4px;text-align:center;&quot;&gt;&lt;b&gt;SubscriptionControllerKt&lt;/b&gt;&lt;/p&gt;&lt;hr size=&quot;1&quot;/&gt;&lt;p style=&quot;margin:0 0 0 4px;line-height:1.6;&quot;&gt;+ SubscriptionController(Application): Unit&lt;/p&gt;" style="verticalAlign=top;align=left;overflow=fill;fontSize=14;fontFamily=Helvetica;html=1;rounded=0;shadow=1;comic=0;labelBackgroundColor=none;strokeWidth=1;" vertex="1" parent="w4eLnVpQkUb1o6Rw9Cqp-1">
          <mxGeometry x="15" y="278" width="295" height="68" as="geometry" />
        </mxCell>
      </root>
    </mxGraphModel>
  </diagram>
</mxfile>
